<mxfile host="app.diagrams.net" modified="2022-07-20T13:38:50.694Z" agent="5.0 (Windows NT 10.0; Win64; x64) AppleWebKit/537.36 (KHTML, like Gecko) Chrome/103.0.0.0 Safari/537.36" etag="oEjq673PX5NzZmhNvKFj" version="20.0.4" type="github">
  <diagram id="z95vrsYEr5pznMK7IXma" name="Page-1">
    <mxGraphModel dx="2418" dy="1275" grid="0" gridSize="10" guides="1" tooltips="1" connect="1" arrows="1" fold="1" page="0" pageScale="1" pageWidth="827" pageHeight="1169" background="none" math="0" shadow="0">
      <root>
        <mxCell id="0" />
        <mxCell id="1" parent="0" />
        <mxCell id="15pvpPqnqHVTBGhwlEQ7-2" value="&lt;font style=&quot;font-size: 16px;&quot;&gt;Start&lt;/font&gt;" style="strokeWidth=2;html=1;shape=mxgraph.flowchart.start_1;whiteSpace=wrap;" parent="1" vertex="1">
          <mxGeometry x="350" y="-60" width="100" height="60" as="geometry" />
        </mxCell>
        <mxCell id="15pvpPqnqHVTBGhwlEQ7-3" value="" style="endArrow=classic;html=1;rounded=0;fontSize=16;targetPerimeterSpacing=0;" parent="1" edge="1">
          <mxGeometry width="50" height="50" relative="1" as="geometry">
            <mxPoint x="399.58" y="90" as="sourcePoint" />
            <mxPoint x="399.58" y="120" as="targetPoint" />
          </mxGeometry>
        </mxCell>
        <mxCell id="15pvpPqnqHVTBGhwlEQ7-4" value="Detect front and right distance" style="rounded=0;whiteSpace=wrap;html=1;fontSize=16;" parent="1" vertex="1">
          <mxGeometry x="340" y="120" width="120" height="60" as="geometry" />
        </mxCell>
        <mxCell id="15pvpPqnqHVTBGhwlEQ7-6" value="Sand-box over?" style="html=1;whiteSpace=wrap;aspect=fixed;shape=isoRectangle;fontSize=16;" parent="1" vertex="1">
          <mxGeometry x="325" y="210" width="150" height="90" as="geometry" />
        </mxCell>
        <mxCell id="15pvpPqnqHVTBGhwlEQ7-9" value="" style="endArrow=classic;html=1;rounded=0;fontSize=16;targetPerimeterSpacing=0;" parent="1" edge="1">
          <mxGeometry width="50" height="50" relative="1" as="geometry">
            <mxPoint x="399.5799999999999" y="180" as="sourcePoint" />
            <mxPoint x="399.5799999999999" y="210" as="targetPoint" />
          </mxGeometry>
        </mxCell>
        <mxCell id="15pvpPqnqHVTBGhwlEQ7-10" value="" style="endArrow=classic;html=1;rounded=0;fontSize=16;targetPerimeterSpacing=0;" parent="1" edge="1">
          <mxGeometry width="50" height="50" relative="1" as="geometry">
            <mxPoint x="399.5799999999999" y="300" as="sourcePoint" />
            <mxPoint x="399.5799999999999" y="330" as="targetPoint" />
          </mxGeometry>
        </mxCell>
        <UserObject label="No" placeholders="1" name="Variable" id="15pvpPqnqHVTBGhwlEQ7-13">
          <mxCell style="text;html=1;strokeColor=none;fillColor=none;align=center;verticalAlign=middle;whiteSpace=wrap;overflow=hidden;fontSize=16;" parent="1" vertex="1">
            <mxGeometry x="475" y="260" width="80" height="20" as="geometry" />
          </mxCell>
        </UserObject>
        <mxCell id="15pvpPqnqHVTBGhwlEQ7-14" value="In straight line &lt;br&gt;and planned route?" style="html=1;whiteSpace=wrap;aspect=fixed;shape=isoRectangle;fontSize=16;" parent="1" vertex="1">
          <mxGeometry x="325" y="330" width="150" height="90" as="geometry" />
        </mxCell>
        <UserObject label="Yes" placeholders="1" name="Variable" id="15pvpPqnqHVTBGhwlEQ7-15">
          <mxCell style="text;html=1;strokeColor=none;fillColor=none;align=center;verticalAlign=middle;whiteSpace=wrap;overflow=hidden;fontSize=16;" parent="1" vertex="1">
            <mxGeometry x="380" y="300" width="80" height="20" as="geometry" />
          </mxCell>
        </UserObject>
        <mxCell id="15pvpPqnqHVTBGhwlEQ7-22" value="Rotate right motor for turning" style="rounded=0;whiteSpace=wrap;html=1;fontSize=16;" parent="1" vertex="1">
          <mxGeometry x="575" y="580" width="120" height="60" as="geometry" />
        </mxCell>
        <mxCell id="15pvpPqnqHVTBGhwlEQ7-23" value="" style="endArrow=classic;html=1;rounded=0;fontSize=16;targetPerimeterSpacing=0;" parent="1" edge="1">
          <mxGeometry width="50" height="50" relative="1" as="geometry">
            <mxPoint x="399.56999999999994" y="420" as="sourcePoint" />
            <mxPoint x="399.56999999999994" y="450" as="targetPoint" />
          </mxGeometry>
        </mxCell>
        <UserObject label="Yes" placeholders="1" name="Variable" id="15pvpPqnqHVTBGhwlEQ7-24">
          <mxCell style="text;html=1;strokeColor=none;fillColor=none;align=center;verticalAlign=middle;whiteSpace=wrap;overflow=hidden;fontSize=16;" parent="1" vertex="1">
            <mxGeometry x="380" y="420" width="80" height="20" as="geometry" />
          </mxCell>
        </UserObject>
        <UserObject label="No" placeholders="1" name="Variable" id="15pvpPqnqHVTBGhwlEQ7-27">
          <mxCell style="text;html=1;strokeColor=none;fillColor=none;align=center;verticalAlign=middle;whiteSpace=wrap;overflow=hidden;fontSize=16;" parent="1" vertex="1">
            <mxGeometry x="270" y="350" width="80" height="20" as="geometry" />
          </mxCell>
        </UserObject>
        <mxCell id="15pvpPqnqHVTBGhwlEQ7-29" value="At the corner, &lt;br&gt;facing forward?" style="html=1;whiteSpace=wrap;aspect=fixed;shape=isoRectangle;fontSize=16;" parent="1" vertex="1">
          <mxGeometry x="325" y="450" width="150" height="90" as="geometry" />
        </mxCell>
        <UserObject label="Yes" placeholders="1" name="Variable" id="15pvpPqnqHVTBGhwlEQ7-31">
          <mxCell style="text;html=1;strokeColor=none;fillColor=none;align=center;verticalAlign=middle;whiteSpace=wrap;overflow=hidden;fontSize=16;" parent="1" vertex="1">
            <mxGeometry x="470" y="470" width="80" height="20" as="geometry" />
          </mxCell>
        </UserObject>
        <mxCell id="15pvpPqnqHVTBGhwlEQ7-32" value="Direction Adjustment" style="shape=ext;double=1;rounded=0;whiteSpace=wrap;html=1;fontSize=16;" parent="1" vertex="1">
          <mxGeometry x="170" y="330" width="120" height="80" as="geometry" />
        </mxCell>
        <mxCell id="15pvpPqnqHVTBGhwlEQ7-34" value="" style="endArrow=classic;html=1;rounded=0;fontSize=16;targetPerimeterSpacing=0;" parent="1" edge="1">
          <mxGeometry width="50" height="50" relative="1" as="geometry">
            <mxPoint x="325" y="374.52" as="sourcePoint" />
            <mxPoint x="290" y="375" as="targetPoint" />
          </mxGeometry>
        </mxCell>
        <mxCell id="15pvpPqnqHVTBGhwlEQ7-35" value="" style="endArrow=classic;html=1;rounded=0;fontSize=16;targetPerimeterSpacing=0;entryX=0.5;entryY=1;entryDx=0;entryDy=0;" parent="1" target="15pvpPqnqHVTBGhwlEQ7-32" edge="1">
          <mxGeometry width="50" height="50" relative="1" as="geometry">
            <mxPoint x="325" y="494.52" as="sourcePoint" />
            <mxPoint x="270" y="450" as="targetPoint" />
            <Array as="points">
              <mxPoint x="230" y="495" />
            </Array>
          </mxGeometry>
        </mxCell>
        <UserObject label="No" placeholders="1" name="Variable" id="15pvpPqnqHVTBGhwlEQ7-36">
          <mxCell style="text;html=1;strokeColor=none;fillColor=none;align=center;verticalAlign=middle;whiteSpace=wrap;overflow=hidden;fontSize=16;" parent="1" vertex="1">
            <mxGeometry x="245" y="470" width="80" height="20" as="geometry" />
          </mxCell>
        </UserObject>
        <mxCell id="15pvpPqnqHVTBGhwlEQ7-37" value="" style="endArrow=classic;html=1;rounded=0;fontSize=16;targetPerimeterSpacing=0;entryX=0;entryY=0.5;entryDx=0;entryDy=0;" parent="1" target="c7ARRz9sKZELqipmsLDP-3" edge="1">
          <mxGeometry width="50" height="50" relative="1" as="geometry">
            <mxPoint x="230" y="330" as="sourcePoint" />
            <mxPoint x="300" y="190" as="targetPoint" />
            <Array as="points">
              <mxPoint x="230" y="60" />
            </Array>
          </mxGeometry>
        </mxCell>
        <mxCell id="15pvpPqnqHVTBGhwlEQ7-38" value="&lt;font style=&quot;font-size: 16px;&quot;&gt;End&lt;/font&gt;" style="strokeWidth=2;html=1;shape=mxgraph.flowchart.start_1;whiteSpace=wrap;" parent="1" vertex="1">
          <mxGeometry x="350" y="670" width="100" height="60" as="geometry" />
        </mxCell>
        <mxCell id="c7ARRz9sKZELqipmsLDP-2" value="" style="endArrow=classic;html=1;rounded=0;fontSize=16;targetPerimeterSpacing=0;exitX=0.5;exitY=1;exitDx=0;exitDy=0;exitPerimeter=0;entryX=0.5;entryY=0;entryDx=0;entryDy=0;" edge="1" parent="1" source="15pvpPqnqHVTBGhwlEQ7-2" target="c7ARRz9sKZELqipmsLDP-3">
          <mxGeometry width="50" height="50" relative="1" as="geometry">
            <mxPoint x="450" as="sourcePoint" />
            <mxPoint x="400" y="10" as="targetPoint" />
          </mxGeometry>
        </mxCell>
        <mxCell id="c7ARRz9sKZELqipmsLDP-3" value="&lt;font style=&quot;font-size: 16px;&quot;&gt;Move forward at proper speed&lt;/font&gt;" style="rounded=0;whiteSpace=wrap;html=1;" vertex="1" parent="1">
          <mxGeometry x="340" y="30" width="120" height="60" as="geometry" />
        </mxCell>
        <mxCell id="c7ARRz9sKZELqipmsLDP-14" value="" style="endArrow=classic;html=1;rounded=0;fontSize=16;targetPerimeterSpacing=0;" edge="1" parent="1">
          <mxGeometry width="50" height="50" relative="1" as="geometry">
            <mxPoint x="474.99999999999994" y="255" as="sourcePoint" />
            <mxPoint x="560" y="180" as="targetPoint" />
            <Array as="points">
              <mxPoint x="560" y="255" />
            </Array>
          </mxGeometry>
        </mxCell>
        <mxCell id="c7ARRz9sKZELqipmsLDP-18" value="Wheel transformation" style="rounded=1;whiteSpace=wrap;html=1;fontSize=16;" vertex="1" parent="1">
          <mxGeometry x="500" y="120" width="120" height="60" as="geometry" />
        </mxCell>
        <mxCell id="c7ARRz9sKZELqipmsLDP-19" value="" style="endArrow=classic;html=1;rounded=0;fontSize=16;exitX=0.5;exitY=0;exitDx=0;exitDy=0;entryX=1;entryY=0.5;entryDx=0;entryDy=0;" edge="1" parent="1" source="c7ARRz9sKZELqipmsLDP-18" target="c7ARRz9sKZELqipmsLDP-3">
          <mxGeometry width="50" height="50" relative="1" as="geometry">
            <mxPoint x="560" y="110" as="sourcePoint" />
            <mxPoint x="610" y="60" as="targetPoint" />
            <Array as="points">
              <mxPoint x="560" y="60" />
            </Array>
          </mxGeometry>
        </mxCell>
        <mxCell id="c7ARRz9sKZELqipmsLDP-22" value="" style="shape=curlyBracket;whiteSpace=wrap;html=1;rounded=1;flipH=1;fontSize=16;" vertex="1" parent="1">
          <mxGeometry x="140" y="277.5" width="20" height="185" as="geometry" />
        </mxCell>
        <UserObject label="not over" placeholders="1" name="Variable" id="c7ARRz9sKZELqipmsLDP-30">
          <mxCell style="text;html=1;strokeColor=none;fillColor=none;align=center;verticalAlign=middle;whiteSpace=wrap;overflow=hidden;fontSize=16;" vertex="1" parent="1">
            <mxGeometry x="195" y="500" width="180" height="20" as="geometry" />
          </mxCell>
        </UserObject>
        <mxCell id="c7ARRz9sKZELqipmsLDP-31" value="" style="endArrow=classic;html=1;rounded=0;fontSize=16;targetPerimeterSpacing=0;exitX=1.006;exitY=0.504;exitDx=0;exitDy=0;exitPerimeter=0;entryX=-0.011;entryY=0.491;entryDx=0;entryDy=0;entryPerimeter=0;" edge="1" parent="1" source="15pvpPqnqHVTBGhwlEQ7-29" target="c7ARRz9sKZELqipmsLDP-33">
          <mxGeometry width="50" height="50" relative="1" as="geometry">
            <mxPoint x="410" y="430" as="sourcePoint" />
            <mxPoint x="510" y="495" as="targetPoint" />
          </mxGeometry>
        </mxCell>
        <mxCell id="c7ARRz9sKZELqipmsLDP-33" value="Enough turning space?" style="html=1;whiteSpace=wrap;aspect=fixed;shape=isoRectangle;fontSize=16;" vertex="1" parent="1">
          <mxGeometry x="560" y="450" width="150" height="90" as="geometry" />
        </mxCell>
        <mxCell id="c7ARRz9sKZELqipmsLDP-34" value="" style="endArrow=classic;html=1;rounded=0;fontSize=16;entryX=0.998;entryY=0.503;entryDx=0;entryDy=0;entryPerimeter=0;" edge="1" parent="1" target="15pvpPqnqHVTBGhwlEQ7-14">
          <mxGeometry width="50" height="50" relative="1" as="geometry">
            <mxPoint x="636" y="450" as="sourcePoint" />
            <mxPoint x="700" y="360" as="targetPoint" />
            <Array as="points">
              <mxPoint x="636" y="375" />
            </Array>
          </mxGeometry>
        </mxCell>
        <UserObject label="No" placeholders="1" name="Variable" id="c7ARRz9sKZELqipmsLDP-35">
          <mxCell style="text;html=1;strokeColor=none;fillColor=none;align=center;verticalAlign=middle;whiteSpace=wrap;overflow=hidden;fontSize=16;" vertex="1" parent="1">
            <mxGeometry x="520" y="350" width="80" height="20" as="geometry" />
          </mxCell>
        </UserObject>
        <mxCell id="c7ARRz9sKZELqipmsLDP-36" value="" style="endArrow=classic;html=1;rounded=0;fontSize=16;entryX=0.5;entryY=0;entryDx=0;entryDy=0;" edge="1" parent="1" target="15pvpPqnqHVTBGhwlEQ7-22">
          <mxGeometry width="50" height="50" relative="1" as="geometry">
            <mxPoint x="635" y="540" as="sourcePoint" />
            <mxPoint x="680" y="540" as="targetPoint" />
          </mxGeometry>
        </mxCell>
        <UserObject label="Yes" placeholders="1" name="Variable" id="c7ARRz9sKZELqipmsLDP-37">
          <mxCell style="text;html=1;strokeColor=none;fillColor=none;align=center;verticalAlign=middle;whiteSpace=wrap;overflow=hidden;fontSize=16;" vertex="1" parent="1">
            <mxGeometry x="620" y="550" width="80" height="20" as="geometry" />
          </mxCell>
        </UserObject>
        <mxCell id="c7ARRz9sKZELqipmsLDP-38" value="" style="endArrow=classic;html=1;rounded=0;fontSize=16;targetPerimeterSpacing=0;" edge="1" parent="1">
          <mxGeometry width="50" height="50" relative="1" as="geometry">
            <mxPoint x="399.4099999999999" y="540" as="sourcePoint" />
            <mxPoint x="400" y="580" as="targetPoint" />
          </mxGeometry>
        </mxCell>
        <mxCell id="c7ARRz9sKZELqipmsLDP-39" value="Moving forward" style="rounded=0;whiteSpace=wrap;html=1;fontSize=16;" vertex="1" parent="1">
          <mxGeometry x="340" y="580" width="120" height="60" as="geometry" />
        </mxCell>
        <mxCell id="c7ARRz9sKZELqipmsLDP-41" value="" style="endArrow=classic;html=1;rounded=0;fontSize=16;targetPerimeterSpacing=0;exitX=0.5;exitY=1;exitDx=0;exitDy=0;" edge="1" parent="1" source="c7ARRz9sKZELqipmsLDP-39">
          <mxGeometry width="50" height="50" relative="1" as="geometry">
            <mxPoint x="399.8" y="650" as="sourcePoint" />
            <mxPoint x="399.8" y="670" as="targetPoint" />
            <Array as="points">
              <mxPoint x="400" y="670" />
            </Array>
          </mxGeometry>
        </mxCell>
        <mxCell id="c7ARRz9sKZELqipmsLDP-43" value="" style="endArrow=classic;html=1;rounded=0;fontSize=16;targetPerimeterSpacing=0;exitX=1.006;exitY=0.504;exitDx=0;exitDy=0;exitPerimeter=0;entryX=1;entryY=0.5;entryDx=0;entryDy=0;" edge="1" parent="1" target="c7ARRz9sKZELqipmsLDP-39">
          <mxGeometry width="50" height="50" relative="1" as="geometry">
            <mxPoint x="575.0000000000001" y="610.5799999999999" as="sourcePoint" />
            <mxPoint x="657.4500000000002" y="609.4100000000001" as="targetPoint" />
          </mxGeometry>
        </mxCell>
        <UserObject label="already over corner" placeholders="1" name="Variable" id="c7ARRz9sKZELqipmsLDP-44">
          <mxCell style="text;html=1;strokeColor=none;fillColor=none;align=center;verticalAlign=middle;whiteSpace=wrap;overflow=hidden;fontSize=16;" vertex="1" parent="1">
            <mxGeometry x="397" y="540" width="180" height="23" as="geometry" />
          </mxCell>
        </UserObject>
        <mxCell id="c7ARRz9sKZELqipmsLDP-48" value="&lt;font style=&quot;font-size: 13px;&quot;&gt;1. Small right-side distance:&lt;br&gt;right motor turns slightly&lt;br&gt;&lt;/font&gt;" style="rounded=1;whiteSpace=wrap;html=1;fontSize=16;" vertex="1" parent="1">
          <mxGeometry x="-40" y="240" width="180" height="60" as="geometry" />
        </mxCell>
        <mxCell id="c7ARRz9sKZELqipmsLDP-49" value="&lt;font style=&quot;font-size: 13px;&quot;&gt;2. Large right-side distance:&lt;br&gt;left motor turns slightly&lt;br&gt;&lt;/font&gt;" style="rounded=1;whiteSpace=wrap;html=1;fontSize=16;" vertex="1" parent="1">
          <mxGeometry x="-40" y="340" width="180" height="60" as="geometry" />
        </mxCell>
        <mxCell id="c7ARRz9sKZELqipmsLDP-50" value="&lt;font style=&quot;font-size: 13px;&quot;&gt;3. Lacking space at corner:&lt;br&gt;reverse and turn both motors&amp;nbsp;&lt;br&gt;&lt;/font&gt;" style="rounded=1;whiteSpace=wrap;html=1;fontSize=16;" vertex="1" parent="1">
          <mxGeometry x="-40" y="430" width="180" height="60" as="geometry" />
        </mxCell>
      </root>
    </mxGraphModel>
  </diagram>
</mxfile>
